Coordinates
version=1
nRows=13
nColumns=36
inDegrees=yes

Units are S.I. units (second, meters, Newtons, ...)
If the header above contains a line with 'inDegrees', this indicates whether rotational values are in degrees (yes) or radians (no).

endheader
time	pelvis_tilt	pelvis_list	pelvis_rotation	pelvis_tx	pelvis_ty	pelvis_tz	hip_flexion_r	hip_adduction_r	hip_rotation_r	knee_angle_r	knee_angle_r_beta	ankle_angle_r	subtalar_angle_r	mtp_angle_r	hip_flexion_l	hip_adduction_l	hip_rotation_l	knee_angle_l	knee_angle_l_beta	ankle_angle_l	subtalar_angle_l	mtp_angle_l	lumbar_extension	lumbar_bending	lumbar_rotation	arm_flex_r	arm_add_r	arm_rot_r	elbow_flex_r	pro_sup_r	arm_flex_l	arm_add_l	arm_rot_l	elbow_flex_l	pro_sup_l
      1.19000000	    -21.25142864	     -0.54071333	      1.57904869	     -0.32864633	      0.65567273	     -0.59131386	     87.45723774	    -16.29297878	      4.79213878	     93.63690558	      1.63427230	     28.62211727	     -2.19594601	     -7.40771309	     87.40662169	     -7.60518521	     10.16929830	     90.00113815	      1.57081619	     24.58542046	     -6.89998956	     -7.40771309	    -28.28519996	     -1.99967960	    -31.83465449	     88.89951987	    -44.38574699	     29.70187574	    110.16841635	     79.58920420	    -97.13959603	    -43.52404184	   -171.61958521	    133.32845433	     88.91566029
      1.20000000	    -21.86341355	     -0.62445545	      1.22335705	     -0.32534502	      0.64702116	     -0.59066686	     89.07425724	    -15.56504917	      5.52592699	     95.34814397	      1.66413905	     28.73094712	     -2.43527941	     -7.41104447	     88.91614600	     -7.92818763	     10.61852826	     91.70502006	      1.60055454	     25.47051518	     -6.38397341	     -7.41104447	    -28.36335131	     -1.72580720	    -31.14078735	     90.36479639	    -41.49071497	     30.21613422	    108.96020414	     80.07396802	    -96.99440181	    -46.10666362	   -170.64999119	    133.62165298	     89.21711290
      1.21000000	    -22.41851635	     -0.75088284	      0.99447590	     -0.32254594	      0.63905199	     -0.59006095	     90.38641846	    -14.97162781	      6.09336096	     96.78570627	      1.68922924	     29.15459326	     -2.65281408	     -7.41198748	     90.39776340	     -8.19006613	     11.05113713	     93.31024279	      1.62857096	     25.77477136	     -6.35081708	     -7.41198748	    -28.51982818	     -1.50006688	    -30.31641228	     91.52554223	    -38.84435745	     30.28346867	    107.66761920	     80.13232469	    -97.81847900	    -48.99987374	   -170.54919667	    133.77864572	     89.29736127
      1.22000000	    -22.88578932	     -0.77833614	      0.94384815	     -0.31992040	      0.63176537	     -0.59005356	     91.41964555	    -14.73591749	      6.56810666	     97.98351346	      1.71013492	     29.92578314	     -2.84292540	     -7.41280077	     91.72647543	     -8.24068201	     11.32425138	     94.81940043	      1.65491073	     26.02716319	     -6.14529361	     -7.41280077	    -28.66108402	     -1.16795053	    -29.49369926	     93.03566932	    -36.37988998	     30.70082862	    106.19587858	     80.17126041	    -98.54519895	    -52.32659005	   -170.18086508	    133.89397099	     89.39392843
      1.23000000	    -23.24347641	     -0.95984621	      1.02052866	     -0.31723963	      0.62536773	     -0.59091432	     91.99364297	    -14.85720415	      6.71546465	     98.89784670	      1.72609305	     31.46691823	     -2.08040383	     -7.41624111	     92.93137533	     -8.21761569	     11.63089802	     96.19883033	      1.67898633	     26.61203681	     -5.33678872	     -7.41624111	    -28.53828990	     -0.18598996	    -27.16127071	     96.07908007	    -35.91035885	     33.28699925	    105.37786211	     80.86664966	    -98.39490443	    -58.92347312	   -167.76286351	    134.23160571	     90.13971795
      1.24000000	    -23.64794988	     -0.96394265	      1.24610935	     -0.31469062	      0.61976160	     -0.59187664	     92.59213398	    -15.18091025	      7.02466874	     99.68214323	      1.73978160	     32.75546092	     -1.68365893	     -7.42041629	     93.97680477	     -8.00229903	     11.69604252	     97.28897862	      1.69801300	     26.75034826	     -5.18031743	     -7.42041629	    -28.34327406	      0.41929170	    -25.11818796	     98.12397372	    -35.25388030	     34.64332961	    104.34599432	     81.65671097	    -99.38768228	    -65.32806195	   -166.69589288	    134.08584614	     91.25467475
      1.25000000	    -24.13351861	     -1.02985157	      1.55567027	     -0.31207294	      0.61498395	     -0.59299604	     93.21560926	    -15.64716405	      7.19900702	    100.36645528	      1.75172510	     33.74031229	     -1.30555385	     -7.42590566	     94.97139205	     -7.74543755	     11.72594328	     98.17871213	      1.71354178	     27.05920040	     -4.86751581	     -7.42590566	    -27.80398010	      1.06593148	    -22.16486357	    100.19502439	    -35.93134799	     36.35762237	    103.80218466	     82.76342199	   -101.58244527	    -73.83348080	   -166.45371062	    133.42377834	     93.06228416
      1.26000000	    -24.71565823	     -1.13662749	      1.80122989	     -0.30925113	      0.61109733	     -0.59396502	     93.90242711	    -16.04007296	      7.23686475	    100.96650727	      1.76219799	     34.25396523	     -1.26239230	     -7.43237103	     95.90295807	     -7.63791418	     11.68581357	     98.86983711	      1.72560419	     27.39986678	     -4.61698133	     -7.43237103	    -27.04183922	      1.71816557	    -18.96472575	    102.15819680	    -36.91332375	     38.26028976	    103.45241048	     83.68492780	   -104.66211584	    -82.74402263	   -167.31476252	    132.29835446	     95.70307242
      1.27000000	    -24.72559245	     -1.00983293	      1.99729541	     -0.30697748	      0.60864560	     -0.59433081	     94.14470230	    -16.33423844	      7.46085295	    101.58143773	      1.77293055	     34.57793820	     -1.28113454	     -7.52802507	     96.06411550	     -7.63308405	     11.42081676	     99.39681837	      1.73480175	     27.76826090	     -4.48351609	     -7.52802507	    -26.62590405	     -2.31465303	      5.06385654	    113.44496414	    -75.43738793	     49.22893242	    119.41539454	     74.59843226	    -78.54882980	   -132.78636721	   -135.89242005	    113.26053120	    110.46010997
      1.28000000	    -25.04553082	     -0.82843846	      2.02509189	     -0.30421905	      0.60681347	     -0.59398596	     94.57086868	    -16.36764527	      7.69783400	    102.02650097	      1.78069837	     34.82877719	     -1.38603580	     -7.52196257	     96.29454932	     -7.83508551	     11.12730630	     99.70723392	      1.74021952	     28.20114304	     -4.35572022	     -7.52196257	    -26.48505531	     -1.92173355	      2.31204738	    109.14516199	    -67.14502689	     45.24173619	    116.07304157	     74.89762781	    -78.51794752	   -129.18174292	   -135.56921908	    115.12243058	    110.36277392
      1.29000000	    -25.35152528	     -0.66561241	      1.77604275	     -0.30154529	      0.60594185	     -0.59265103	     94.81821007	    -15.95126243	      7.88591778	    102.26296162	      1.78482538	     35.08398446	     -1.53879214	     -7.52179162	     96.39632123	     -8.39434352	     10.89084279	     99.85676776	      1.74282938	     28.53632455	     -4.22532321	     -7.52179162	    -26.53242018	     -2.27333409	      2.84160842	    109.32611815	    -65.17888707	     45.03672189	    114.98448611	     74.86401742	    -78.33180868	   -130.49156350	   -135.28189204	    114.65496140	    110.27294255
      1.30000000	    -25.48448660	     -0.49816928	      1.39127646	     -0.29878817	      0.60633004	     -0.59062876	     94.72559136	    -15.27591996	      7.99581943	    102.30572297	      1.78557171	     35.09672271	     -2.17064253	     -7.51984562	     96.16683117	     -9.17088856	     10.73920806	     99.92062752	      1.74394394	     29.98085461	     -2.50910631	     -7.51984562	    -26.62562215	     -2.33017702	      1.13282054	    107.50673727	    -58.95752534	     43.01059235	    112.10147753	     75.57772018	    -77.28751809	   -127.40609199	   -134.17267985	    116.12742123	    109.77187375
      1.31000000	    -25.72891077	     -0.40331380	      1.12000818	     -0.29598458	      0.60750729	     -0.58929756	     94.57032457	    -14.71778086	      8.10168064	    102.17978759	      1.78337372	     35.34937387	     -2.30593715	     -7.51970858	     95.96857772	     -9.64424832	     10.60130994	     99.76066819	      1.74115212	     30.02600572	     -2.74327170	     -7.51970858	    -26.62831015	     -2.59136359	      1.72865871	    107.90090556	    -57.49772523	     42.89321011	    111.32850572	     75.58475476	    -77.09691832	   -128.15386200	   -133.94785659	    115.94715885	    109.71640516
